<svg xmlns="http://www.w3.org/2000/svg" width="341.01" height="65.998" viewBox="0 0 341.01 65.998">
  <g id="Group_12" data-name="Group 12" transform="translate(5810.002 -6256)">
    <path id="Subtraction_4" data-name="Subtraction 4" d="M-21328.5-1499.5a33.268,33.268,0,0,1-6.652-.67,32.838,32.838,0,0,1-6.2-1.923,33.137,33.137,0,0,1-5.605-3.042,33.272,33.272,0,0,1-4.883-4.03,33.348,33.348,0,0,1-4.031-4.884,32.974,32.974,0,0,1-3.041-5.605,32.845,32.845,0,0,1-1.924-6.194,33.215,33.215,0,0,1-.672-6.651,33.214,33.214,0,0,1,.672-6.651,32.85,32.85,0,0,1,1.924-6.194,32.984,32.984,0,0,1,3.041-5.605,33.361,33.361,0,0,1,4.031-4.884,33.264,33.264,0,0,1,4.883-4.03,33.13,33.13,0,0,1,5.605-3.042,32.847,32.847,0,0,1,6.2-1.923,33.268,33.268,0,0,1,6.652-.67,33.249,33.249,0,0,1,6.65.67,32.847,32.847,0,0,1,6.2,1.923,32.981,32.981,0,0,1,5.605,3.042,33.154,33.154,0,0,1,4.883,4.03,33.114,33.114,0,0,1,4.031,4.884,32.867,32.867,0,0,1,3.043,5.605,32.85,32.85,0,0,1,1.924,6.194,33.355,33.355,0,0,1,.668,6.651,33.356,33.356,0,0,1-.668,6.651,32.845,32.845,0,0,1-1.924,6.194,32.852,32.852,0,0,1-3.043,5.605,33.1,33.1,0,0,1-4.031,4.884,33.17,33.17,0,0,1-4.883,4.03,32.98,32.98,0,0,1-5.605,3.042,32.838,32.838,0,0,1-6.2,1.923A33.249,33.249,0,0,1-21328.5-1499.5Zm6.766-37.233v15.64a2.514,2.514,0,0,0,2.555,2.8,2.782,2.782,0,0,0,1.924-.729,2.751,2.751,0,0,0,.83-2.066V-1543.5a5.789,5.789,0,0,0-.084-1.065,2.512,2.512,0,0,0-.342-.92,2.177,2.177,0,0,0-2.006-.891c-1.4,0-1.746.329-2.76,1.306-.016.016-.035.032-.051.049l-.064.063-13.412,16.774v-15.721a2.731,2.731,0,0,0-.207-1,3.143,3.143,0,0,0-.555-.9,2.442,2.442,0,0,0-1.791-.9,2.9,2.9,0,0,0-1.986.9,3.29,3.29,0,0,0-.646.9,2.317,2.317,0,0,0-.246,1v22.812a2.694,2.694,0,0,0,2.148,2.8,4.129,4.129,0,0,0,1.732-.3,5.648,5.648,0,0,0,1.551-1.12l13.412-17.017Z" transform="translate(15551.502 7821.501)" opacity="0.81"/>
    <g id="Group_11" data-name="Group 11" transform="translate(-6208.748 5799.574)">
      <path id="Path_5" data-name="Path 5" d="M-33.25-3.45A3.293,3.293,0,0,0-29.85,0c1.8,0,3.15-1.25,3.15-3.45v-19.3l16.55,21A5.023,5.023,0,0,0-6.1,0,3.337,3.337,0,0,0-3.45-3.45V-31.6A3.807,3.807,0,0,0-7-35.05a3.516,3.516,0,0,0-3.15,3.45v19.4L-26.7-32.9c-1.35-1.3-1.75-1.75-3.55-1.75-2.6,0-3,1.75-3,3.55Z" transform="translate(523 507)"/>
      <path id="Path_6" data-name="Path 6" d="M-15.4.35c4.15,0,8.35-.65,11.85-3.9A3.449,3.449,0,0,0-3-8.25a3.367,3.367,0,0,0-4.6-.6,11.643,11.643,0,0,1-7.8,3.2c-7.75,0-11.4-5.7-11.4-11.9,0-6.1,3.7-11.55,11.4-11.55a8.65,8.65,0,0,1,7,2.75,3.388,3.388,0,0,0,4.6.15,3.41,3.41,0,0,0-.15-4.85A16.355,16.355,0,0,0-15.4-35.5c-11.5,0-17.55,8.3-17.55,17.95S-27.5.35-15.4.35Z" transform="translate(566.709 507)"/>
      <path id="Path_7" data-name="Path 7" d="M-25.05-3.05A3.023,3.023,0,0,0-21.9,0H-5.35c5,0,4.9-6.55,0-6.55h-13.6V-31.6a3.043,3.043,0,0,0-2.95-3.05,3.117,3.117,0,0,0-3.15,3.05Z" transform="translate(610.012 507)"/>
      <path id="Path_8" data-name="Path 8" d="M-19.55-13.45v10.3c0,4.35,7.05,4.35,6.6,0v-10.3L-1.25-30.1c2.6-3.35-2.85-7-5.5-3.35l-9.35,13.7-9.2-13.7c-2.65-3.65-8.3.2-5.6,3.55Z" transform="translate(654.039 507)"/>
      <path id="Path_9" data-name="Path 9" d="M-33.25-3.45A3.293,3.293,0,0,0-29.85,0c1.8,0,3.15-1.25,3.15-3.45v-19.3l16.55,21A5.023,5.023,0,0,0-6.1,0,3.337,3.337,0,0,0-3.45-3.45V-31.6A3.807,3.807,0,0,0-7-35.05a3.516,3.516,0,0,0-3.15,3.45v19.4L-26.7-32.9c-1.35-1.3-1.75-1.75-3.55-1.75-2.6,0-3,1.75-3,3.55Z" transform="translate(698.002 507)"/>
      <path id="Path_10" data-name="Path 10" d="M-5.4,0a3.285,3.285,0,1,0,0-6.55H-20.65v-7.5h12.6a3.276,3.276,0,1,0,0-6.55h-12.6v-7.5h14.4a3.254,3.254,0,1,0,0-6.5H-24.2a3.023,3.023,0,0,0-3.1,3.1V-3.1A3.053,3.053,0,0,0-24.2,0Z" transform="translate(741.611 507)"/>
    </g>
  </g>
</svg>
