<svg xmlns="http://www.w3.org/2000/svg" xmlns:xlink="http://www.w3.org/1999/xlink" width="3085" height="682" viewBox="0 0 3085 682">
  <defs>
    <clipPath id="clip-Artboard_7">
      <rect width="3085" height="682"/>
    </clipPath>
  </defs>
  <g id="Artboard_7" data-name="Artboard – 7" clip-path="url(#clip-Artboard_7)">
    <text id="NCLYNE.BLOG" transform="translate(2861 433)" fill="#e3b74f" font-size="243" font-family="Multicolore" letter-spacing="0.2em"><tspan x="-2184.327" y="0">NCLYNE.BLOG</tspan></text>
    <path id="Subtraction_3" data-name="Subtraction 3" d="M-21193.129-1228.751a171.027,171.027,0,0,1-17.213-.869,168.681,168.681,0,0,1-16.719-2.552c-5.424-1.11-10.852-2.506-16.137-4.149-5.223-1.625-10.428-3.53-15.471-5.662-4.992-2.112-9.943-4.5-14.717-7.09-4.74-2.575-9.41-5.412-13.883-8.434-4.453-3.01-8.816-6.271-12.961-9.693s-8.162-7.072-11.957-10.867-7.453-7.82-10.869-11.957-6.682-8.51-9.691-12.962c-3.023-4.477-5.861-9.147-8.432-13.883-2.6-4.772-4.98-9.724-7.092-14.718-2.131-5.04-4.037-10.244-5.66-15.47a166.191,166.191,0,0,1-4.15-16.136,168.215,168.215,0,0,1-2.553-16.718,171.837,171.837,0,0,1-.871-17.215,171.836,171.836,0,0,1,.871-17.215,168.21,168.21,0,0,1,2.553-16.718,166.194,166.194,0,0,1,4.15-16.136c1.623-5.225,3.529-10.43,5.66-15.47,2.111-4.994,4.5-9.946,7.092-14.719,2.57-4.735,5.408-9.406,8.432-13.882,3.01-4.452,6.27-8.813,9.691-12.962s7.07-8.16,10.869-11.957,7.816-7.451,11.957-10.867,8.508-6.683,12.961-9.693c4.473-3.021,9.143-5.859,13.883-8.434,4.773-2.593,9.725-4.978,14.717-7.09,5.043-2.132,10.248-4.037,15.471-5.662,5.285-1.643,10.713-3.039,16.137-4.149a168.645,168.645,0,0,1,16.719-2.551,170.991,170.991,0,0,1,17.213-.869,171,171,0,0,1,17.215.869,168.73,168.73,0,0,1,16.717,2.551c5.426,1.11,10.855,2.506,16.137,4.149,5.223,1.624,10.428,3.529,15.471,5.662,5,2.114,9.947,4.5,14.717,7.09,4.74,2.574,9.412,5.412,13.883,8.434,4.455,3.008,8.814,6.27,12.963,9.693s8.162,7.073,11.955,10.867,7.453,7.819,10.869,11.957,6.684,8.51,9.693,12.962c3.023,4.477,5.859,9.147,8.432,13.882,2.594,4.772,4.979,9.724,7.09,14.719,2.135,5.041,4.039,10.246,5.664,15.47,1.645,5.287,3.039,10.716,4.148,16.136,1.123,5.5,1.984,11.122,2.553,16.718a171.828,171.828,0,0,1,.867,17.215,171.828,171.828,0,0,1-.867,17.215c-.568,5.6-1.43,11.221-2.553,16.718-1.109,5.42-2.5,10.849-4.148,16.136-1.625,5.224-3.529,10.428-5.664,15.47-2.111,4.994-4.5,9.946-7.09,14.718-2.572,4.735-5.408,9.406-8.432,13.883-3.01,4.452-6.27,8.813-9.693,12.962s-7.072,8.161-10.869,11.957-7.814,7.45-11.955,10.867-8.508,6.685-12.963,9.693c-4.471,3.022-9.143,5.86-13.883,8.434-4.77,2.591-9.721,4.977-14.717,7.09-5.043,2.132-10.248,4.037-15.471,5.662-5.281,1.643-10.711,3.039-16.137,4.149a168.642,168.642,0,0,1-16.717,2.552A171.037,171.037,0,0,1-21193.129-1228.751Zm34.525-189.979v79.8c0,4.355,1.287,8,3.723,10.544a11.619,11.619,0,0,0,4.129,2.772,13.881,13.881,0,0,0,5.174.95,14.22,14.22,0,0,0,9.82-3.722,14.031,14.031,0,0,0,4.24-10.544v-114.326a29.666,29.666,0,0,0-.43-5.434,13.028,13.028,0,0,0-1.742-4.7,9.129,9.129,0,0,0-1.586-1.866,9.267,9.267,0,0,0-2.174-1.435,12.128,12.128,0,0,0-2.855-.921,18.759,18.759,0,0,0-3.619-.325c-3.562,0-5.826.43-7.818,1.484s-3.7,2.7-6.281,5.193q-.138.132-.275.267c-.1.1-.2.193-.3.291l-68.43,85.591v-80.215a12.858,12.858,0,0,0-.27-2.572,14.942,14.942,0,0,0-.775-2.535,16.485,16.485,0,0,0-2.83-4.584,15.378,15.378,0,0,0-1.939-1.86,13.5,13.5,0,0,0-2.209-1.445,10.783,10.783,0,0,0-5-1.27,14.785,14.785,0,0,0-10.131,4.574,16.682,16.682,0,0,0-3.3,4.584,13.258,13.258,0,0,0-.922,2.535,10.67,10.67,0,0,0-.326,2.572v116.393c0,7.331,3.586,12,10.957,14.266a21.045,21.045,0,0,0,8.84-1.525,20,20,0,0,0,3.777-2.226,45.539,45.539,0,0,0,4.129-3.486l68.43-86.829Z" transform="translate(21605.504 1738.126)" fill="#e3b74f"/>
  </g>
</svg>
